<?xml version="1.0" standalone="no"?>
<!DOCTYPE svg PUBLIC "-//W3C//DTD SVG 20010904//EN"
 "http://www.w3.org/TR/2001/REC-SVG-20010904/DTD/svg10.dtd">
<svg version="1.0" xmlns="http://www.w3.org/2000/svg"
 width="1600.000000pt" height="635.000000pt" viewBox="0 0 1600.000000 635.000000"
 preserveAspectRatio="xMidYMid meet">

<g transform="translate(0.000000,635.000000) scale(0.100000,-0.100000)"
fill="#000000" stroke="none">
<path d="M4760 4753 c-159 -5 -465 -33 -649 -59 -319 -46 -538 -97 -756 -176
-203 -74 -650 -300 -1055 -534 -113 -65 -250 -142 -305 -170 -159 -83 -168
-85 -706 -153 -85 -11 -169 -25 -185 -31 -36 -14 -94 -52 -94 -63 0 -11 -52
-81 -64 -86 -4 -2 -16 -22 -27 -45 -10 -22 -19 -37 -19 -33 0 13 -30 -20 -30
-33 0 -6 5 -8 12 -4 7 4 8 3 4 -5 -4 -6 -12 -9 -17 -6 -5 4 -14 -6 -19 -21 -8
-20 -8 -29 1 -35 10 -6 10 -16 1 -48 -15 -48 -38 -69 -28 -25 4 19 3 24 -3 14
-5 -8 -12 -30 -16 -48 -6 -30 -4 -33 24 -43 32 -11 51 -35 51 -63 0 -9 -18
-20 -47 -28 l-48 -14 3 -53 c2 -35 -1 -50 -8 -46 -6 4 -9 -7 -8 -29 2 -20 8
-36 13 -37 20 -2 81 2 119 7 24 4 36 3 32 -4 -3 -5 -39 -13 -79 -16 -40 -4
-77 -10 -83 -14 -5 -4 -17 -32 -27 -63 -10 -34 -33 -74 -57 -102 l-40 -46 27
-3 c26 -3 26 -4 9 -21 -14 -14 -21 -15 -32 -6 -8 7 -17 9 -21 6 -12 -12 -15
-104 -4 -111 6 -4 11 -18 11 -32 0 -13 5 -24 11 -24 5 0 8 -4 4 -9 -6 -10 4
-40 70 -201 24 -58 49 -121 56 -140 18 -51 134 -159 210 -197 96 -48 330 -130
604 -212 55 -16 109 -33 119 -37 16 -6 18 -4 13 10 -5 12 -3 16 5 14 7 -3 19
-27 25 -53 7 -27 15 -56 18 -65 4 -8 7 -17 7 -20 0 -3 9 -29 19 -59 23 -65 23
-65 5 -58 -8 3 -17 3 -20 -1 -4 -3 -19 -8 -34 -9 -15 -2 -40 -8 -57 -13 -16
-5 -50 -12 -75 -15 -96 -15 -348 -76 -397 -98 -61 -25 -74 -57 -24 -57 17 0
32 -4 35 -9 6 -9 80 -24 201 -41 44 -6 98 -15 120 -20 22 -4 81 -14 130 -20
50 -6 110 -17 135 -25 58 -17 210 -43 325 -56 50 -5 367 -14 705 -19 338 -4
622 -11 630 -14 8 -3 101 -10 205 -16 105 -6 244 -15 310 -20 339 -26 579 -42
965 -65 234 -14 522 -32 640 -40 517 -36 931 -64 1045 -70 50 -3 146 -10 215
-16 69 -5 220 -16 335 -24 189 -13 320 -22 783 -55 309 -22 440 -31 767 -55
459 -34 721 -53 895 -65 143 -10 204 -15 570 -45 223 -18 551 -42 675 -50 198
-13 282 -26 480 -75 62 -15 424 -58 580 -69 365 -25 772 -35 1021 -24 137 6
359 9 494 7 195 -4 293 -1 480 15 244 21 408 45 424 61 6 6 25 10 43 10 18 0
33 4 33 9 0 9 110 67 122 63 4 -1 5 4 3 11 -2 6 14 27 37 44 22 18 34 33 27
34 -8 1 -3 5 11 9 22 7 22 8 4 9 -25 1 -64 41 -64 64 0 19 -16 23 -22 6 -4
-11 -78 56 -78 71 0 4 -30 15 -67 24 -102 25 -203 58 -203 67 0 4 -14 12 -32
18 -18 6 -43 19 -57 27 l-24 17 24 14 c17 10 18 12 4 8 -11 -4 -29 -10 -40
-13 -11 -3 -23 -10 -26 -15 -4 -5 -13 -7 -20 -5 -8 3 15 19 50 37 35 18 84 47
110 65 40 28 67 36 196 60 83 15 170 34 195 43 42 15 98 48 110 64 11 14 127
66 160 72 237 39 469 79 483 83 9 3 17 11 17 18 0 8 7 19 15 26 8 6 30 36 49
65 29 42 35 62 34 96 -1 24 2 54 6 67 7 22 6 23 -27 17 -33 -7 -35 -5 -30 15
5 20 3 22 -18 17 -13 -3 -64 -13 -114 -21 -49 -9 -106 -20 -126 -24 l-36 -9
-7 60 c-11 109 -7 287 7 292 6 3 37 7 67 10 30 2 77 9 105 15 27 6 55 8 62 6
7 -3 15 -1 18 4 4 6 15 10 26 10 11 0 18 4 15 9 -3 4 12 16 34 26 37 16 55 45
29 45 -5 0 -7 -4 -4 -10 3 -5 2 -10 -4 -10 -14 0 -24 55 -16 93 7 31 6 31 -27
-16 -23 -33 -39 -47 -53 -45 -12 2 -19 10 -19 21 1 9 -2 17 -7 17 -5 0 -9 -4
-9 -10 0 -5 -7 -10 -16 -10 -13 0 -14 3 -5 14 10 12 -22 15 -231 18 -229 3
-246 4 -289 26 -73 36 -114 95 -273 402 -53 101 -101 187 -107 191 -6 3 4 12
22 18 27 9 31 9 21 -1 -19 -19 -14 -28 14 -28 14 0 23 4 20 8 -2 4 3 8 12 9 9
1 58 13 107 27 50 14 151 38 225 52 74 15 139 31 144 35 5 4 -3 14 -18 20 -21
10 -32 10 -47 1 -23 -14 -32 -15 -24 -3 3 6 -7 6 -27 0 -58 -16 -65 -7 -8 11
33 11 85 19 129 19 88 1 86 15 -4 31 -88 16 -157 31 -185 43 -14 6 -33 9 -43
8 -10 -1 -34 7 -53 18 -24 14 -43 19 -64 14 -25 -4 -29 -3 -24 10 4 12 -2 15
-30 15 -19 0 -57 5 -83 11 -26 6 -75 15 -108 22 -33 6 -112 22 -175 36 -133
28 -233 43 -490 73 -102 11 -198 23 -215 26 -16 2 -73 9 -125 14 -52 5 -117
14 -145 20 -61 12 -260 28 -452 37 -79 3 -143 9 -143 14 0 5 -43 9 -95 9 -61
0 -122 7 -168 19 -64 16 -255 38 -407 46 -190 9 -309 16 -338 20 -18 2 -30 0
-28 -4 3 -4 -21 -4 -53 0 -33 5 -99 7 -147 5 -49 -1 -78 1 -64 5 l25 7 -26 1
c-14 1 -48 3 -75 6 -36 3 -42 2 -24 -4 17 -6 1 -7 -45 -3 -38 3 -73 9 -76 15
-4 6 -30 7 -65 3 -70 -9 -174 -16 -126 -9 37 5 44 23 8 23 -13 0 -45 3 -72 6
-32 4 -44 2 -36 -4 25 -17 -29 -19 -134 -5 -179 24 -180 25 -64 39 58 7 184
22 280 34 163 19 259 29 645 65 209 19 254 33 110 34 -60 0 -141 -4 -180 -10
-249 -35 -434 -47 -446 -28 -6 10 -251 -9 -464 -37 -137 -17 -142 -17 -127 -2
9 9 8 14 -4 22 -10 8 -18 40 -23 94 -5 46 -11 86 -15 89 -3 4 -6 -38 -6 -91
l0 -98 -122 7 c-68 4 -124 9 -126 10 -9 8 43 90 83 132 43 44 55 74 18 41 -10
-9 -24 -13 -31 -11 -7 3 -29 -11 -48 -31 -19 -20 -37 -36 -39 -36 -10 0 -5 22
8 35 30 35 37 45 29 45 -16 0 -72 -63 -103 -117 l-31 -54 -77 4 -76 4 -140
103 c-77 57 -232 183 -345 279 -113 97 -256 218 -318 270 -108 89 -132 119
-132 161 0 17 5 17 93 -6 97 -25 270 -34 282 -14 4 6 -19 11 -62 11 -65 2 -66
2 -21 8 58 8 73 21 27 22 -30 1 -31 2 -9 8 24 7 24 7 -14 30 -27 17 -40 20
-45 12 -6 -8 -16 -8 -42 1 l-34 12 40 18 c22 9 58 18 80 19 38 1 38 2 -15 11
-30 5 -80 10 -110 10 -51 1 -53 1 -20 9 19 5 186 12 370 16 261 6 316 9 250
15 -103 9 -499 1 -785 -17 -64 -4 -83 -3 -67 4 12 6 22 12 22 13 0 2 -20 3
-45 3 -25 0 -45 -3 -45 -7 0 -5 8 -8 17 -8 9 0 14 -3 11 -6 -3 -3 -33 2 -66
10 -33 9 -75 15 -93 15 l-34 -2 35 -7 c30 -6 31 -8 9 -9 -15 0 -43 6 -64 15
-20 8 -47 13 -59 11 -21 -4 -21 -4 2 -6 27 -1 30 -21 2 -21 -11 0 -72 14 -137
30 -278 71 -497 94 -1178 120 -1041 40 -2020 57 -2485 43z m800 -31 l-45 -4
40 -14 c22 -7 76 -14 120 -14 44 0 86 -4 92 -8 7 -4 -256 -8 -585 -8 -717 1
-909 -13 -1272 -94 -218 -49 -513 -150 -610 -210 -110 -68 -192 -111 -255
-135 -38 -14 -75 -30 -82 -37 -11 -8 -12 -7 -7 5 4 12 1 14 -17 10 -44 -12 41
62 116 100 80 41 204 94 254 109 31 9 33 11 16 20 -17 10 -17 11 6 24 13 7 30
13 37 14 8 0 58 18 111 39 106 43 214 74 205 60 -3 -5 -13 -9 -22 -9 -9 -1
-28 -7 -42 -15 -30 -17 -22 -19 16 -5 45 18 250 67 384 94 160 31 426 65 600
75 134 8 1027 11 940 3z m183 1 c-13 -2 -33 -2 -45 0 -13 2 -3 4 22 4 25 0 35
-2 23 -4z m124 1 c-3 -3 -12 -4 -19 -1 -8 3 -5 6 6 6 11 1 17 -2 13 -5z m96
-1 c-7 -2 -21 -2 -30 0 -10 3 -4 5 12 5 17 0 24 -2 18 -5z m727 -63 c559 -15
694 -20 897 -30 214 -11 455 -28 493 -35 14 -2 50 -7 80 -10 83 -9 278 -53
340 -77 79 -30 184 -80 188 -90 2 -4 10 -8 17 -8 7 0 15 -3 17 -7 2 -5 37 -30
78 -58 69 -45 148 -102 160 -115 3 -3 25 -21 50 -40 25 -19 63 -50 86 -69 48
-43 72 -63 189 -161 50 -41 95 -79 101 -85 31 -28 69 -58 157 -124 53 -40 105
-83 115 -96 16 -21 75 -73 216 -191 42 -36 191 -72 442 -108 54 -8 191 -28
304 -45 113 -16 282 -41 377 -55 94 -14 241 -37 325 -50 84 -14 252 -41 373
-61 467 -75 745 -127 995 -186 357 -85 540 -132 554 -142 14 -11 14 -14 -2
-34 l-17 -22 -75 20 c-176 47 -523 131 -555 134 -11 1 -20 3 -20 4 0 3 -6 4
-150 30 -66 12 -148 29 -182 37 -35 8 -114 23 -175 34 -62 11 -144 26 -183 35
-75 16 -376 66 -730 120 -121 19 -258 41 -305 49 -47 8 -121 20 -165 26 -69 9
-206 29 -405 60 -30 4 -131 26 -225 49 -231 56 -301 82 -249 93 10 2 -6 18
-44 45 -63 44 -131 100 -195 158 -20 19 -55 46 -76 60 -22 13 -42 29 -46 35
-3 6 -11 8 -16 5 -5 -4 -9 0 -9 7 0 14 -59 58 -79 58 -7 0 -10 4 -6 9 5 9 -29
35 -46 36 -3 0 -12 7 -21 15 -9 8 -26 24 -39 35 -13 10 -85 71 -159 134 -108
92 -289 238 -345 279 -144 104 -347 186 -562 226 -249 47 -833 80 -1778 102
-159 3 -344 10 -410 15 -142 9 163 5 715 -11z m-906 -5 c265 -8 609 -19 766
-25 157 -5 368 -13 470 -16 102 -4 193 -11 202 -15 10 -5 19 -5 22 0 6 9 34 9
407 -9 451 -21 711 -80 944 -212 63 -36 166 -111 160 -116 -3 -3 -24 8 -48 25
-39 28 -70 47 -179 106 -24 13 -65 31 -93 41 -27 10 -59 22 -70 27 -18 8 -61
19 -148 36 -16 3 -39 0 -51 -7 -13 -6 -36 -10 -52 -7 -25 3 -24 4 9 6 38 1 49
14 20 25 -26 10 -280 38 -378 41 -181 5 -390 16 -403 21 -8 2 -12 -1 -9 -8 3
-9 28 -13 85 -12 45 1 82 -3 82 -7 0 -11 -147 -11 -173 0 -10 4 -17 11 -15 16
2 6 -16 13 -39 16 -37 5 -43 3 -43 -13 0 -10 -4 -18 -9 -18 -5 0 -8 7 -7 16 0
9 -5 19 -11 21 -8 3 -13 -5 -13 -22 0 -14 -4 -24 -8 -21 -10 6 -689 31 -1227
46 -603 16 -1106 20 -1150 10 -22 -5 -130 -11 -240 -14 -172 -4 -334 -16 -540
-42 -31 -3 -45 -2 -37 4 22 15 -96 1 -221 -28 -149 -34 -139 -20 13 19 239 63
623 110 923 114 86 1 157 5 157 10 0 11 383 8 904 -8z m-844 -73 c0 -5 -14 -9
-31 -9 -17 0 -35 -6 -40 -14 -7 -11 -9 -9 -9 9 0 19 5 22 40 22 22 0 40 -4 40
-8z m-113 -24 c-3 -8 -6 -5 -6 6 -1 11 2 17 5 13 3 -3 4 -12 1 -19z m-77 0
c-1 -7 -11 -44 -24 -82 l-23 -69 -89 2 c-49 1 -177 6 -284 12 -179 10 -246 8
-339 -8 -23 -4 -32 -2 -27 5 3 6 -7 13 -26 17 l-32 7 30 14 29 14 -30 -5 c-16
-2 -41 -7 -55 -10 -19 -5 -21 -4 -10 4 41 26 325 74 535 91 290 22 345 23 345
8z m870 -24 c-5 -19 -11 -39 -15 -42 -4 -4 -4 7 0 23 15 77 -75 -184 -100
-286 l-29 -117 -66 -4 c-53 -3 -76 -10 -109 -31 -40 -27 -42 -27 -30 -6 6 13
55 66 107 118 62 61 86 91 71 87 -13 -5 -32 -8 -41 -9 -9 -1 -14 -5 -12 -9 3
-4 -5 -12 -16 -18 -11 -6 -20 -8 -20 -5 0 15 3 20 10 18 11 -3 6 25 -6 36 -5
5 -36 11 -69 15 -212 20 -201 20 -209 0 -21 -51 -29 -151 -33 -381 -2 -139 -7
-253 -11 -253 -20 0 -36 162 -34 328 3 176 -5 249 -19 187 -7 -30 -7 -30 -15
-6 -7 23 -8 24 -16 5 -11 -24 -2 191 12 288 6 40 15 77 19 81 5 5 145 8 310 6
166 -2 301 -1 301 4 0 4 6 7 14 7 11 0 12 -8 6 -36z m695 16 c434 -13 778 -30
788 -39 4 -4 -10 -72 -31 -152 -22 -79 -43 -163 -47 -186 -3 -23 -13 -47 -20
-53 -11 -9 -12 -7 -8 8 2 11 0 23 -5 26 -6 4 -8 -2 -5 -14 3 -11 1 -20 -4 -20
-5 0 -8 -13 -5 -30 5 -36 -13 -40 -22 -5 -4 14 -11 25 -16 25 -6 0 -10 -11
-10 -25 0 -14 -4 -25 -9 -25 -5 0 -12 11 -15 25 -4 14 -11 25 -17 25 -6 0 -9
-3 -7 -7 17 -35 37 -82 63 -147 26 -65 16 -75 -12 -11 -14 33 -32 74 -39 92
-8 17 -14 35 -14 40 0 4 -12 21 -26 37 -25 26 -31 28 -93 26 -99 -4 -119 -2
-101 11 12 8 11 9 -6 7 -11 -2 -29 4 -39 12 -12 10 -16 11 -11 2 13 -22 -2
-62 -24 -62 -36 0 -84 -55 -112 -127 -43 -111 -52 -150 -41 -176 5 -12 7 -30
5 -41 -4 -17 -12 -18 -155 -11 -84 4 -219 11 -301 14 l-148 6 -63 191 c-56
169 -142 378 -131 316 4 -19 2 -21 -10 -11 -8 6 -14 17 -14 23 0 29 71 261 82
268 7 5 76 6 153 3 77 -3 289 -10 470 -15z m1273 -7 c-10 -2 -26 -2 -35 0 -10
3 -2 5 17 5 19 0 27 -2 18 -5z m-2643 -157 c-9 -72 -21 -140 -25 -151 -15 -36
-11 85 5 165 9 41 18 91 22 110 3 19 8 29 11 21 3 -8 -3 -73 -13 -145z m2723
147 c-10 -2 -28 -2 -40 0 -13 2 -5 4 17 4 22 1 32 -1 23 -4z m1375 -6 c4 -10
-2 -13 -21 -9 -24 5 -25 6 -7 13 11 4 21 8 21 8 1 1 4 -5 7 -12z m-1075 -5
c41 -5 42 -22 1 -22 -20 0 -28 4 -23 11 5 8 -1 10 -17 7 -13 -3 -69 -2 -124 2
l-100 8 115 0 c63 -1 130 -3 148 -6z m889 2 c-3 -3 -12 -4 -19 -1 -8 3 -5 6 6
6 11 1 17 -2 13 -5z m96 -1 c-7 -2 -19 -2 -25 0 -7 3 -2 5 12 5 14 0 19 -2 13
-5z m-1129 -39 c281 -26 454 -69 626 -152 83 -41 239 -148 310 -214 14 -13 43
-36 65 -53 67 -50 115 -97 109 -106 -3 -5 -14 1 -24 13 l-19 23 3 -27 c2 -16
-1 -28 -7 -28 -5 0 -7 9 -4 20 6 24 -18 40 -58 40 -23 0 -26 -4 -25 -27 1 -16
2 -39 1 -52 -1 -20 -3 -21 -16 -11 -8 7 -41 13 -73 14 -50 1 -61 5 -89 34 -17
18 -45 35 -62 38 -17 4 -36 13 -42 20 -9 11 -6 14 17 15 16 1 2 5 -31 9 -38 4
-63 2 -67 -4 -12 -17 -9 23 3 46 6 11 9 22 6 24 -7 8 -43 -74 -66 -150 -23
-74 -26 -117 -12 -132 6 -5 11 -34 13 -64 2 -44 -1 -58 -17 -75 -20 -20 -22
-20 -345 -6 -179 7 -326 15 -328 16 -2 2 6 22 18 46 19 36 22 55 18 119 -4 68
-9 83 -42 133 -39 59 -82 97 -110 97 -8 0 -20 10 -27 21 -6 12 -14 18 -18 12
-3 -5 -15 -9 -26 -9 -11 -1 -32 -2 -47 -2 l-28 -2 0 -92 c0 -110 17 -411 26
-450 3 -17 1 -28 -5 -28 -6 0 -11 11 -11 24 0 14 -5 28 -10 31 -6 4 -8 10 -6
14 3 4 -1 32 -9 62 -8 30 -15 80 -15 112 0 31 -4 57 -10 57 -5 0 -10 -11 -10
-25 0 -28 -15 -34 -24 -9 -8 21 -8 668 1 690 6 15 20 16 157 10 83 -4 223 -14
310 -22z m251 16 c-3 -5 -18 -10 -33 -9 l-27 1 25 8 c35 11 42 11 35 0z m-754
-335 c-7 -52 -9 -41 -10 85 0 80 3 170 7 200 5 44 8 27 10 -85 1 -77 -2 -167
-7 -200z m-3721 306 c-8 -5 -26 -11 -40 -15 -21 -5 -20 -3 5 9 32 15 60 20 35
6z m4607 -7 c-3 -3 -12 -4 -19 -1 -8 3 -5 6 6 6 11 1 17 -2 13 -5z m-4927 -28
c-17 -16 -142 -66 -162 -65 -7 0 5 7 27 16 22 8 63 26 90 39 59 27 64 29 45
10z m70 -72 c-136 -82 -206 -120 -210 -117 -6 5 -6 5 120 78 52 30 99 55 105
55 5 0 -1 -7 -15 -16z m-250 2 c0 -8 -67 -46 -80 -46 -7 0 7 11 31 24 50 28
49 27 49 22z m1330 -15 c0 -5 -7 -11 -15 -15 -8 -3 -15 -13 -15 -22 0 -8 -3
-14 -7 -12 -5 2 -21 10 -38 18 -16 8 -32 18 -35 21 -3 4 -16 9 -30 12 -14 2
12 5 58 6 45 0 82 -3 82 -8z m60 -18 c-12 -8 -24 -13 -27 -10 -9 9 21 35 35
30 9 -4 7 -10 -8 -20z m189 4 c-16 -31 -16 -31 -21 -4 -3 17 0 23 14 24 15 2
16 -1 7 -20z m-59 3 c0 -5 -4 -10 -9 -10 -6 0 -13 5 -16 10 -3 6 1 10 9 10 9
0 16 -4 16 -10z m22 -22 c-7 -7 -12 -8 -12 -2 0 6 3 14 7 17 3 4 9 5 12 2 2
-3 -1 -11 -7 -17z m-1645 -10 c-2 -7 -11 -12 -21 -10 -9 2 -16 -2 -16 -8 0 -5
-6 -10 -12 -10 -7 0 -26 -7 -42 -15 -16 -9 -31 -13 -33 -11 -5 5 105 65 120
66 5 0 7 -6 4 -12z m1443 -8 c0 -5 -7 -10 -15 -10 -8 0 -15 5 -15 10 0 6 7 10
15 10 8 0 15 -4 15 -10z m211 -28 c-6 -2 -9 -8 -6 -13 3 -5 1 -27 -5 -50 -9
-32 -14 -39 -23 -30 -9 9 -8 14 3 21 21 13 6 12 -25 -2 -14 -6 -25 -19 -25
-30 0 -10 -5 -18 -11 -18 -5 0 -7 5 -3 12 4 6 -3 4 -17 -5 -13 -9 -28 -17 -33
-17 -11 0 54 52 101 81 18 11 33 25 33 30 0 12 -148 -89 -335 -230 -77 -57
-144 -108 -150 -111 -17 -12 -86 -20 -80 -9 4 5 72 53 153 105 338 222 422
279 423 289 0 5 3 3 6 -4 3 -8 1 -17 -6 -19z m-131 -22 c8 -5 11 -10 5 -10 -5
0 -17 5 -25 10 -8 5 -10 10 -5 10 6 0 17 -5 25 -10z m-1685 -20 c-3 -5 -13
-10 -21 -10 -8 0 -14 -5 -14 -12 0 -6 -3 -8 -7 -5 -3 4 -39 -12 -80 -34 -41
-23 -76 -39 -78 -37 -5 4 185 107 198 108 5 0 5 -4 2 -10z m2806 -101 c20 -54
35 -99 33 -99 -3 0 -22 11 -44 25 -22 14 -44 25 -49 25 -5 0 -12 4 -15 9 -8
12 24 154 33 146 3 -4 22 -51 42 -106z m-2761 97 c0 -2 -7 -7 -16 -10 -8 -3
-12 -2 -9 4 6 10 25 14 25 6z m2440 -30 c0 -2 -7 -7 -16 -10 -8 -3 -12 -2 -9
4 6 10 25 14 25 6z m39 1 c-2 -2 -29 -25 -59 -52 l-55 -48 52 51 c28 29 55 52
59 52 4 0 5 -1 3 -3z m-412 -79 c-3 -7 -5 -2 -5 12 0 14 2 19 5 13 2 -7 2 -19
0 -25z m-2341 -3 c-11 -8 -25 -15 -30 -15 -6 1 0 7 14 15 32 19 40 18 16 0z
m1904 11 c0 -2 -15 -9 -32 -15 -30 -10 -31 -9 -14 4 18 14 46 20 46 11z m2297
-22 c-3 -3 -12 -4 -19 -1 -8 3 -5 6 6 6 11 1 17 -2 13 -5z m-4247 -9 c0 -2
-13 -11 -30 -20 -38 -19 -40 -11 -2 9 31 17 32 18 32 11z m1860 -29 c0 -2 -9
-6 -20 -9 -11 -3 -18 -1 -14 4 5 9 34 13 34 5z m3194 -11 c17 -13 18 -15 3
-15 -9 0 -17 5 -17 11 0 6 -8 8 -17 5 -10 -3 -25 -1 -33 4 -11 7 -8 10 15 10
17 -1 39 -7 49 -15z m-5124 0 c0 -6 -56 -35 -67 -35 -4 1 8 9 27 20 39 22 40
22 40 15z m20 -25 c-8 -5 -19 -10 -25 -10 -5 0 -3 5 5 10 8 5 20 10 25 10 6 0
3 -5 -5 -10z m1860 -11 c0 -6 -4 -7 -10 -4 -5 3 -10 11 -10 16 0 6 5 7 10 4 6
-3 10 -11 10 -16z m-1960 -7 c0 -10 -44 -32 -63 -32 -9 0 21 20 61 39 1 0 2
-3 2 -7z m40 -12 c-8 -5 -19 -10 -25 -10 -5 0 -3 5 5 10 8 5 20 10 25 10 6 0
3 -5 -5 -10z m1885 -10 c8 -13 -5 -13 -25 0 -13 8 -13 10 2 10 9 0 20 -4 23
-10z m886 -42 c-9 -31 -9 -31 -10 -6 -1 30 11 67 16 51 2 -6 0 -26 -6 -45z
m-916 21 c16 -7 14 -8 -10 -3 -33 6 -24 -11 10 -19 11 -3 1 -5 -22 -6 -42 -1
-42 -1 -26 19 19 22 20 22 48 9z m-2009 -24 c-11 -8 -24 -15 -30 -15 -5 0 -1
7 10 15 10 8 24 14 29 14 6 0 1 -6 -9 -14z m2092 -12 c-10 -2 -28 -2 -40 0
-13 2 -5 4 17 4 22 1 32 -1 23 -4z m-2157 -22 c-13 -10 -20 -20 -15 -23 5 -3
3 -3 -4 -1 -7 1 -26 -4 -42 -12 -55 -29 -45 -15 15 20 67 38 82 44 46 16z
m6831 -98 c30 -97 19 -115 -13 -23 -17 47 -35 89 -40 95 -20 20 -8 28 13 8 12
-12 30 -48 40 -80z m-6852 53 c0 -2 -7 -7 -16 -10 -8 -3 -12 -2 -9 4 6 10 25
14 25 6z m-125 -36 c-7 -11 -79 -50 -92 -50 -4 0 15 13 42 29 60 34 58 34 50
21z m4395 -82 c0 -5 -4 -8 -10 -8 -5 0 -10 10 -10 23 0 18 2 19 10 7 5 -8 10
-18 10 -22z m-4510 12 c-8 -5 -19 -10 -25 -10 -5 0 -3 5 5 10 8 5 20 10 25 10
6 0 3 -5 -5 -10z m50 -4 c0 -2 -8 -10 -17 -17 -16 -13 -17 -12 -4 4 13 16 21
21 21 13z m6464 -36 c10 0 14 -5 11 -10 -11 -18 -78 -5 -86 16 -13 34 -10 36
25 15 18 -12 41 -21 50 -21z m267 12 c8 -21 6 -22 -54 -22 l-62 1 45 23 c53
27 60 27 71 -2z m-6821 13 c0 -6 -56 -35 -67 -35 -4 1 8 9 27 20 39 22 40 22
40 15z m5437 -27 c-3 -7 -5 -2 -5 12 0 14 2 19 5 13 2 -7 2 -19 0 -25z m1653
-48 c-14 -4 -34 -8 -45 -8 -16 0 -15 2 5 8 14 4 34 8 45 8 16 0 15 -2 -5 -8z
m-6117 -7 c-29 -2 -78 -2 -110 0 -32 2 -8 3 52 3 61 0 87 -1 58 -3z m-1193 -7
c0 -2 -9 -6 -20 -9 -11 -3 -20 -1 -20 4 0 5 9 9 20 9 11 0 20 -2 20 -4z m888
-15 c24 -18 56 -21 262 -31 331 -15 1067 -57 1440 -81 173 -11 333 -20 355
-21 104 -1 1111 -54 1215 -63 30 -3 197 -12 370 -20 303 -15 833 -45 837 -49
1 -1 -5 -26 -14 -55 -9 -34 -18 -49 -23 -41 -5 9 -63 14 -196 19 -104 4 -205
8 -224 9 -19 1 -93 2 -165 3 -71 1 -132 5 -135 9 -3 4 -158 13 -345 19 -472
15 -688 26 -1103 57 -176 13 -216 13 -229 3 -14 -12 -15 -10 -11 16 3 17 3 24
1 18 -8 -23 -46 -24 -193 -9 -80 8 -192 18 -250 21 -140 8 -487 33 -630 46
-125 10 -392 32 -618 50 -79 6 -146 8 -149 5 -3 -3 0 -12 6 -20 7 -8 8 -17 3
-20 -5 -3 -73 -1 -153 4 -79 5 -165 10 -191 10 -39 0 -48 3 -48 18 0 21 69
109 90 115 35 11 73 6 98 -12z m485 12 c-24 -2 -62 -2 -85 0 -24 2 -5 4 42 4
47 0 66 -2 43 -4z m-623 -11 c0 -4 -20 -36 -45 -70 -40 -54 -48 -61 -72 -57
-16 3 -77 12 -136 20 -104 14 -167 35 -167 55 0 18 67 40 150 49 112 11 270
13 270 3z m813 1 c-18 -2 -48 -2 -65 0 -18 2 -4 4 32 4 36 0 50 -2 33 -4z
m-1728 -13 c-67 -13 -150 -22 -144 -15 7 7 113 23 154 23 24 0 22 -2 -10 -8z
m2278 -4 c111 -8 247 -17 303 -20 55 -3 206 -14 335 -25 128 -12 261 -22 294
-25 33 -2 -3 -2 -80 0 -133 4 -460 24 -1180 73 l-120 8 123 2 c67 0 214 -5
325 -13z m5235 -45 c65 -27 124 -51 132 -54 8 -3 -21 -6 -66 -6 -76 -1 -85 1
-169 44 -54 28 -95 43 -107 39 -20 -6 -26 12 -5 19 44 15 105 4 215 -42z
m-7701 23 c-3 -3 -12 -4 -19 -1 -8 3 -5 6 6 6 11 1 17 -2 13 -5z m3713 -14 c0
-11 -2 -20 -4 -20 -2 0 -6 9 -9 20 -3 11 -1 20 4 20 5 0 9 -9 9 -20z m-3787 3
c-7 -2 -19 -2 -25 0 -7 3 -2 5 12 5 14 0 19 -2 13 -5z m-90 -10 c-7 -2 -19 -2
-25 0 -7 3 -2 5 12 5 14 0 19 -2 13 -5z m8346 -18 c57 -27 131 -81 131 -96 0
-22 -40 -6 -64 25 -38 50 -90 79 -142 78 -24 0 -44 4 -44 9 0 17 66 9 119 -16z
m-8390 11 c-2 -2 -26 -6 -54 -9 -34 -4 -42 -3 -25 3 25 8 87 13 79 6z m4161
-35 c74 -6 232 -12 350 -12 148 -1 207 -5 190 -11 -14 -6 -90 -7 -175 -4 -82
3 -307 11 -500 18 -192 7 -323 15 -290 18 93 8 276 4 425 -9z m4193 -7 c42
-21 97 -74 97 -93 0 -8 -16 4 -36 27 -20 24 -52 51 -73 62 -44 23 -33 27 12 4z
m87 -39 c19 -19 30 -35 24 -35 -5 0 -22 16 -37 35 -36 45 -30 45 13 0z m-2120
-21 c0 -35 -15 -30 -17 6 -1 18 2 28 7 25 6 -4 10 -17 10 -31z m-1202 19 c-10
-2 -28 -2 -40 0 -13 2 -5 4 17 4 22 1 32 -1 23 -4z m145 -10 c-7 -2 -21 -2
-30 0 -10 3 -4 5 12 5 17 0 24 -2 18 -5z m2584 -26 c3 -4 -17 -7 -45 -7 -45 0
-52 -3 -52 -20 0 -11 7 -20 15 -20 8 0 15 -5 15 -11 0 -6 -7 -8 -16 -5 -9 3
-31 6 -49 6 -35 0 -50 19 -40 50 4 14 18 16 85 15 44 -1 83 -5 87 -8z m175 -8
c-19 -7 -21 -12 -12 -28 5 -11 20 -22 32 -24 13 -2 -17 -4 -67 -4 -49 0 -71 2
-47 4 37 4 42 7 42 29 0 22 -4 24 -51 24 l-51 0 6 -31 c4 -22 2 -29 -7 -26 -6
2 -12 9 -12 15 0 5 -3 14 -7 18 -4 4 1 14 11 23 14 13 36 15 102 12 62 -2 78
-5 61 -12z m68 -20 c0 -11 4 -18 9 -14 5 3 12 1 15 -4 7 -11 -22 -23 -35 -15
-5 3 -9 19 -9 35 0 18 4 28 10 24 6 -3 10 -15 10 -26z m68 11 c17 -11 32 -24
32 -29 0 -12 -89 30 -90 42 0 13 24 7 58 -13z m177 10 c-3 -5 -16 -10 -28 -10
-18 0 -19 2 -7 10 20 13 43 13 35 0z m222 -5 c8 -9 13 -18 11 -21 -3 -2 -13 5
-23 16 -21 23 -11 27 12 5z m801 8 c-10 -2 -26 -2 -35 0 -10 3 -2 5 17 5 19 0
27 -2 18 -5z m-3265 -20 c-7 -2 -21 -2 -30 0 -10 3 -4 5 12 5 17 0 24 -2 18
-5z m3292 -18 c55 -7 125 -16 155 -20 60 -7 449 -61 730 -101 96 -14 176 -27
179 -29 8 -8 -31 -5 -129 9 -135 21 -436 61 -715 96 -249 31 -427 58 -434 66
-6 6 78 -3 214 -21z m-9590 4 c11 -17 -1 -21 -15 -4 -8 9 -8 15 -2 15 6 0 14
-5 17 -11z m6560 1 c3 -5 1 -10 -4 -10 -6 0 -11 5 -11 10 0 6 2 10 4 10 3 0 8
-4 11 -10z m3372 4 c-3 -3 -12 -4 -19 -1 -8 3 -5 6 6 6 11 1 17 -2 13 -5z
m-3284 -11 c-7 -2 -19 -2 -25 0 -7 3 -2 5 12 5 14 0 19 -2 13 -5z m192 -13
c28 -6 14 -6 -45 -3 -47 3 -87 7 -89 9 -8 7 94 3 134 -6z m1205 0 c0 -13 -11
-13 -30 0 -12 8 -11 10 8 10 12 0 22 -4 22 -10z m527 -6 c6 -17 -12 -34 -36
-34 -11 0 -11 3 -1 15 6 8 9 19 5 25 -3 5 1 10 10 10 8 0 18 -7 22 -16z
m-1517 -10 c0 -2 -28 -3 -62 -2 -61 1 -61 1 -18 7 42 6 80 3 80 -5z m2557 -5
c446 -58 1366 -195 1638 -244 17 -3 122 -22 235 -41 364 -61 802 -149 965
-193 113 -31 59 -24 -112 15 -174 39 -316 68 -408 83 -33 6 -159 28 -280 50
-207 37 -292 51 -595 100 -133 21 -409 64 -680 105 -91 14 -327 48 -525 76
-198 28 -380 54 -405 59 -86 17 6 11 167 -10z m-3296 -8 c57 -6 176 -15 264
-21 220 -14 399 -28 605 -45 96 -8 317 -26 490 -40 173 -14 388 -32 478 -42
129 -14 167 -15 183 -5 25 16 24 10 -12 -70 -25 -52 -37 -68 -53 -68 -85 0
-519 44 -551 55 -23 8 -52 14 -65 14 -19 -1 -17 -3 10 -9 l35 -7 -42 -2 c-31
-1 -43 3 -43 13 0 10 -17 16 -57 21 -32 3 -96 10 -143 16 -47 5 -117 10 -157
11 -39 1 -69 6 -67 10 3 4 -3 9 -13 9 -72 6 -108 8 -178 13 -44 3 -91 7 -105
11 -14 3 -151 14 -305 25 -441 32 -449 33 -453 51 -1 8 2 28 7 42 12 31 16 32
172 18z m866 2 c-20 -2 -52 -2 -70 0 -17 2 0 4 38 4 39 0 53 -2 32 -4z m3146
0 c-7 -2 -19 -2 -25 0 -7 3 -2 5 12 5 14 0 19 -2 13 -5z m-2913 -12 c36 -5
141 -15 234 -21 93 -7 179 -16 190 -20 31 -13 -30 -13 -124 0 -41 5 -165 17
-275 26 -110 9 -202 18 -204 20 -8 7 114 4 179 -5z m2993 2 c-7 -2 -19 -2 -25
0 -7 3 -2 5 12 5 14 0 19 -2 13 -5z m-8410 -70 c133 -4 177 -9 177 -18 0 -10
-15 -12 -57 -9 -236 17 -345 23 -361 18 -14 -5 -14 -3 3 11 12 9 28 13 40 10
11 -4 100 -9 198 -12z m6277 -13 l55 -7 -60 0 c-33 -1 -73 3 -90 7 l-30 8 35
0 c19 0 60 -3 90 -8z m2560 -40 c59 -14 -5 -10 -95 5 l-80 14 70 -5 c39 -3 86
-9 105 -14z m88 -17 c-10 -2 -26 -2 -35 0 -10 3 -2 5 17 5 19 0 27 -2 18 -5z
m49 -9 c-3 -3 -12 -4 -19 -1 -8 3 -5 6 6 6 11 1 17 -2 13 -5z m76 -11 c-7 -2
-19 -2 -25 0 -7 3 -2 5 12 5 14 0 19 -2 13 -5z m-7015 -20 c141 -5 186 -13
170 -28 -7 -7 -433 25 -463 35 -23 8 -11 9 50 5 44 -3 153 -8 243 -12z m7127
7 c42 -11 1 -11 -50 -1 -34 7 -35 9 -10 9 17 0 44 -4 60 -8z m-9050 -21 c5 -5
-19 -9 -65 -9 -45 0 -70 4 -64 9 20 21 108 21 129 0z m9198 -6 c-7 -2 -21 -2
-30 0 -10 3 -4 5 12 5 17 0 24 -2 18 -5z m60 -10 c-7 -2 -21 -2 -30 0 -10 3
-4 5 12 5 17 0 24 -2 18 -5z m60 -10 c-7 -2 -19 -2 -25 0 -7 3 -2 5 12 5 14 0
19 -2 13 -5z m70 -10 c-7 -2 -19 -2 -25 0 -7 3 -2 5 12 5 14 0 19 -2 13 -5z
m-2481 -89 c3 -28 2 -28 -42 -26 -84 6 -312 31 -316 35 -3 2 3 18 13 35 15 27
22 30 58 27 270 -19 255 -19 255 1 1 26 27 -36 32 -72z m2531 79 c-7 -2 -19
-2 -25 0 -7 3 -2 5 12 5 14 0 19 -2 13 -5z m60 -10 c-7 -2 -21 -2 -30 0 -10 3
-4 5 12 5 17 0 24 -2 18 -5z m-2423 -43 c140 -12 367 -34 510 -50 52 -5 160
-17 240 -25 135 -15 177 -19 393 -45 45 -5 154 -16 242 -25 339 -34 776 -90
970 -125 61 -11 140 -24 178 -30 37 -5 86 -14 110 -20 23 -5 57 -10 75 -10 17
0 32 -5 32 -11 0 -7 -14 -9 -37 -5 -21 3 -63 8 -93 11 -30 3 -203 23 -385 45
-484 58 -997 110 -1735 175 -223 20 -459 41 -525 48 l-120 12 -3 37 c-2 28 0
37 10 33 7 -2 69 -9 138 -15z m-5055 -9 c30 -7 29 -7 -13 -15 -49 -9 -162 1
-162 15 0 10 130 10 175 0z m2260 -18 c22 -2 101 -6 175 -9 74 -4 141 -11 148
-16 18 -15 15 -30 -5 -24 -10 3 -128 15 -263 27 -135 12 -252 26 -260 31 -14
8 41 6 205 -9z m-57 -60 c-10 -2 -28 -2 -40 0 -13 2 -5 4 17 4 22 1 32 -1 23
-4z m90 -10 c-10 -2 -26 -2 -35 0 -10 3 -2 5 17 5 19 0 27 -2 18 -5z m135 -10
c-13 -2 -33 -2 -45 0 -13 2 -3 4 22 4 25 0 35 -2 23 -4z m35 -49 c67 -7 75
-24 11 -24 -24 0 -38 4 -34 10 3 6 -1 10 -10 10 -9 0 -13 -4 -10 -10 7 -11
-31 -13 -87 -4 -21 4 -35 10 -32 15 6 11 76 12 162 3z m7142 -55 c-195 -62
-270 -85 -270 -82 0 12 71 41 182 73 158 45 224 52 88 9z m275 11 c3 -5 -3
-10 -14 -10 -12 0 -21 5 -21 10 0 6 6 10 14 10 8 0 18 -4 21 -10z m-1487 -79
c-68 -7 -107 -38 -109 -85 -1 -30 -1 -30 -9 -6 -14 45 -11 58 23 79 24 16 47
20 92 19 l60 -1 -57 -6z m-1328 -46 c105 -20 164 -45 195 -83 25 -32 34 -80
20 -107 -5 -11 -10 -21 -11 -23 -1 -1 -56 11 -123 27 -184 45 -372 58 -532 38
-69 -9 -165 -28 -214 -42 -48 -14 -90 -24 -92 -21 -3 3 14 14 38 26 23 12 49
29 57 36 7 8 20 14 28 14 8 0 14 3 14 8 0 4 21 16 48 26 26 11 49 23 52 26 19
27 168 80 245 87 28 3 51 6 52 6 7 8 147 -4 223 -18z m-11389 -38 c-8 -8 -11
-7 -11 4 0 20 13 34 18 19 3 -7 -1 -17 -7 -23z m12907 26 c-15 -2 -42 -2 -60
0 -18 2 -6 4 27 4 33 0 48 -2 33 -4z m105 -35 c2 -7 25 -19 51 -27 25 -7 50
-19 54 -26 4 -6 16 -17 27 -23 17 -9 9 -11 -42 -12 -36 0 -65 5 -69 12 -5 8 0
9 14 6 25 -7 28 1 10 25 -8 9 -32 18 -58 20 -36 3 -41 5 -23 11 13 5 20 12 17
17 -3 5 -1 9 4 9 6 0 12 -6 15 -12z m-277 -39 c3 -5 -6 -9 -20 -9 -16 0 -26 6
-26 14 0 15 36 11 46 -5z m-11726 -13 c0 -2 -8 -10 -17 -17 -16 -13 -17 -12
-4 4 13 16 21 21 21 13z m12454 -5 c-17 -4 -36 -11 -42 -15 -7 -4 -12 -3 -12
2 0 16 13 22 49 21 l36 -1 -31 -7z m256 -42 c17 -28 29 -54 26 -57 -3 -3 -7
-3 -8 -1 -21 33 -58 109 -54 109 2 0 18 -23 36 -51z m-915 21 c-3 -5 -13 -10
-21 -10 -8 0 -14 5 -14 10 0 6 9 10 21 10 11 0 17 -4 14 -10z m193 3 c-10 -2
-26 -2 -35 0 -10 3 -2 5 17 5 19 0 27 -2 18 -5z m-12028 -34 c0 -4 -8 -13 -17
-20 -15 -12 -16 -12 -10 6 6 18 5 17 -12 -3 -11 -13 -18 -29 -15 -36 3 -8 1
-16 -4 -20 -13 -8 -7 51 7 68 12 14 51 18 51 5z m12545 -15 c35 -24 126 -118
146 -150 11 -18 30 -39 44 -48 35 -23 76 -109 82 -172 l6 -54 -30 0 c-17 0
-45 10 -64 23 -56 38 -63 41 -55 28 4 -6 31 -28 59 -47 47 -33 44 -40 -7 -18
-13 5 -17 4 -13 -3 5 -7 0 -9 -13 -6 -12 3 -20 14 -21 27 0 21 0 21 -9 -1 -13
-31 -40 -30 -40 2 0 18 -5 25 -19 25 -11 0 -23 5 -27 12 -4 6 -3 8 3 5 15 -9
57 39 47 55 -4 7 -31 42 -60 78 -59 73 -119 179 -129 227 -5 27 -3 32 17 36
28 5 57 -1 83 -19z m-315 1 c0 -8 9 -15 19 -15 11 0 35 -13 53 -30 18 -16 37
-30 43 -30 5 0 3 5 -5 10 -9 6 -10 10 -3 10 34 0 157 -168 189 -260 9 -25 20
-53 25 -62 6 -11 6 -18 0 -18 -5 0 -11 -10 -13 -22 -10 -69 -161 -62 -310 13
-53 27 -79 46 -44 33 9 -3 13 1 13 13 -2 13 8 20 36 27 20 5 37 13 37 18 0 4
6 8 14 8 8 0 16 7 20 15 3 9 0 15 -9 15 -8 0 -15 5 -15 10 0 6 12 10 27 10 31
0 19 20 -14 23 -14 1 -19 6 -15 19 3 12 -1 18 -14 18 -9 0 -15 2 -12 5 5 6 79
-8 113 -21 11 -4 5 5 -13 22 -48 44 -56 49 -72 49 -8 0 -14 6 -12 13 3 17 -9
15 -24 -5 -13 -17 -13 -17 -14 2 l-1 20 -8 -20 c-5 -11 -4 -28 1 -37 6 -14 5
-18 -7 -18 -8 0 -15 -4 -15 -10 0 -5 -7 -7 -15 -4 -10 4 -15 0 -15 -12 0 -13
-3 -15 -11 -7 -14 14 -14 90 1 108 8 9 8 15 0 20 -15 9 -31 -4 -28 -23 2 -10
-3 -16 -11 -14 -8 2 -11 -3 -8 -12 12 -30 -7 -24 -34 11 -44 55 -34 89 11 41
l21 -23 5 22 c5 18 16 22 75 28 119 12 98 29 -51 41 -70 5 -88 4 -98 -9 -7 -8
-9 -18 -4 -21 9 -6 -15 -117 -27 -126 -11 -8 -24 -43 -22 -58 1 -8 -11 -4 -33
10 -26 16 -37 32 -41 56 -3 17 -7 48 -10 67 -3 19 -10 35 -15 35 -25 0 -7 18
23 23 76 14 96 20 92 28 -3 4 -34 6 -68 3 -34 -4 -78 -1 -97 4 -26 8 13 9 153
6 119 -2 187 0 187 6 0 6 11 10 25 10 16 0 25 -6 25 -15z m-430 1 c0 -2 -11
-6 -25 -8 -14 -3 -25 -1 -25 3 0 5 11 9 25 9 14 0 25 -2 25 -4z m273 -50 c4
-10 1 -13 -9 -9 -7 3 -14 9 -14 14 0 14 17 10 23 -5z m57 10 c0 -3 -4 -8 -10
-11 -5 -3 -10 -1 -10 4 0 6 5 11 10 11 6 0 10 -2 10 -4z m-2485 -16 c-3 -5
-12 -10 -18 -10 -7 0 -6 4 3 10 19 12 23 12 15 0z m3360 -357 c30 -34 39 -50
26 -46 -33 8 -99 107 -186 275 -75 145 -51 123 35 -33 45 -80 101 -168 125
-196z m-11148 301 c-3 -3 -12 -4 -19 -1 -8 3 -5 6 6 6 11 1 17 -2 13 -5z m80
0 c-3 -3 -12 -4 -19 -1 -8 3 -5 6 6 6 11 1 17 -2 13 -5z m288 -19 c6 -2 -16
-4 -47 -4 -32 -1 -58 3 -58 8 0 8 79 5 105 -4z m203 -12 c-10 -2 -26 -2 -35 0
-10 3 -2 5 17 5 19 0 27 -2 18 -5z m272 -9 c80 -4 155 -7 168 -7 12 1 22 -4
22 -9 0 -6 -16 -7 -37 -4 -21 3 -110 8 -197 12 -88 4 -171 10 -185 15 -18 5
-9 7 29 4 30 -2 120 -7 200 -11z m9386 -21 c3 -16 9 -40 14 -54 7 -24 3 -79
-7 -79 -2 0 -13 5 -24 11 -15 8 -18 14 -9 24 13 16 16 61 6 98 -5 17 -4 27 3
27 6 0 13 -12 17 -27z m-8825 -13 c275 -21 372 -32 209 -24 -193 9 -544 35
-549 39 -8 9 74 5 340 -15z m9536 -22 c16 -24 34 -49 41 -56 7 -8 25 -30 40
-50 15 -21 29 -39 32 -42 18 -15 63 -83 51 -76 -19 12 -71 10 -84 -3 -19 -19
-27 -12 -27 22 0 49 -24 126 -58 190 -37 67 -34 75 5 15z m-12036 5 c226 -101
361 -437 289 -718 -65 -253 -282 -422 -482 -375 -146 34 -273 148 -334 299
-28 72 -8 55 41 -33 52 -92 123 -167 198 -210 62 -35 61 -26 -2 12 -108 67
-205 210 -233 343 -14 69 -28 77 -28 17 0 -68 -9 -38 -20 65 -16 161 12 297
85 414 65 101 131 158 228 194 67 25 192 21 258 -8z m1902 20 c-13 -2 -33 -2
-45 0 -13 2 -3 4 22 4 25 0 35 -2 23 -4z m280 -10 c-7 -2 -19 -2 -25 0 -7 3
-2 5 12 5 14 0 19 -2 13 -5z m9086 -50 c1 -13 -3 -23 -9 -23 -5 0 -10 19 -9
43 0 32 2 37 9 22 5 -11 9 -30 9 -42z m-8789 32 c113 -8 221 -15 240 -16 19 0
29 -3 22 -6 -13 -5 -517 25 -537 32 -22 8 80 4 275 -10z m5077 -67 c-2 -18 -4
-6 -4 27 0 33 2 48 4 33 2 -15 2 -42 0 -60z m-4442 47 c116 -8 309 -24 430
-35 121 -10 312 -27 425 -35 113 -9 210 -18 215 -20 26 -9 -88 -2 -535 35
-267 22 -564 46 -660 54 -96 7 -155 14 -130 15 25 0 140 -6 255 -14z m-10 -25
c464 -38 1014 -84 1200 -100 121 -11 229 -20 240 -21 11 0 15 -3 9 -5 -6 -3
-335 22 -730 55 -396 33 -793 65 -884 71 -91 6 -169 13 -175 16 -13 6 191 -4
340 -16z m8274 -72 c0 -10 -3 -18 -9 -18 -5 0 -9 21 -9 48 1 42 2 44 9 17 4
-16 8 -38 9 -47z m-3822 -10 c-3 -8 -6 -5 -6 6 -1 11 2 17 5 13 3 -3 4 -12 1
-19z m3608 12 c-3 -5 -11 -10 -16 -10 -6 0 -7 5 -4 10 3 6 11 10 16 10 6 0 7
-4 4 -10z m-6887 -7 c-16 -2 -40 -2 -55 0 -16 2 -3 4 27 4 30 0 43 -2 28 -4z
m7582 3 c0 -3 -4 -8 -10 -11 -5 -3 -10 -1 -10 4 0 6 5 11 10 11 6 0 10 -2 10
-4z m-7472 -13 c-16 -2 -40 -2 -55 0 -16 2 -3 4 27 4 30 0 43 -2 28 -4z m192
-10 c0 -5 -24 -7 -52 -5 -95 5 -104 9 -25 11 42 0 77 -2 77 -6z m180 -7 c8 -2
-14 -4 -50 -5 -36 0 -71 3 -78 7 -11 8 92 5 128 -2z m508 -35 c224 -17 459
-35 522 -40 63 -6 183 -16 265 -22 83 -6 152 -14 155 -17 3 -2 -33 -2 -80 1
-913 67 -1373 104 -1312 106 24 0 226 -12 450 -28z m-610 12 c-10 -2 -26 -2
-35 0 -10 3 -2 5 17 5 19 0 27 -2 18 -5z m120 -10 c-16 -2 -40 -2 -55 0 -16 2
-3 4 27 4 30 0 43 -2 28 -4z m125 -10 c-13 -2 -33 -2 -45 0 -13 2 -3 4 22 4
25 0 35 -2 23 -4z m140 -10 c-13 -2 -35 -2 -50 0 -16 2 -5 4 22 4 28 0 40 -2
28 -4z m135 -10 c-16 -2 -40 -2 -55 0 -16 2 -3 4 27 4 30 0 43 -2 28 -4z m110
-10 c-16 -2 -40 -2 -55 0 -16 2 -3 4 27 4 30 0 43 -2 28 -4z m140 -10 c-16 -2
-40 -2 -55 0 -16 2 -3 4 27 4 30 0 43 -2 28 -4z m372 -23 c76 -6 79 -7 25 -8
-33 0 -127 6 -210 13 l-150 13 125 -5 c69 -3 163 -8 210 -13z m193 -17 c-18
-2 -48 -2 -65 0 -18 2 -4 4 32 4 36 0 50 -2 33 -4z m310 0 c-13 -2 -33 -2 -45
0 -13 2 -3 4 22 4 25 0 35 -2 23 -4z m-88 -13 c68 -7 69 -7 15 -7 -30 0 -84 3
-120 7 -61 7 -62 7 -15 7 28 0 82 -3 120 -7z m223 3 c-15 -2 -42 -2 -60 0 -18
2 -6 4 27 4 33 0 48 -2 33 -4z m5952 -3 c13 -9 13 -10 0 -10 -8 0 -22 5 -30
10 -13 9 -13 10 0 10 8 0 22 -5 30 -10z m-5847 -7 c-13 -2 -33 -2 -45 0 -13 2
-3 4 22 4 25 0 35 -2 23 -4z m6155 0 c-49 -2 -127 -2 -175 0 -49 1 -9 3 87 3
96 0 136 -2 88 -3z m-8431 -9 c-3 -3 -12 -4 -19 -1 -8 3 -5 6 6 6 11 1 17 -2
13 -5z m2131 -1 c-16 -2 -40 -2 -55 0 -16 2 -3 4 27 4 30 0 43 -2 28 -4z m295
0 c-13 -2 -35 -2 -50 0 -16 2 -5 4 22 4 28 0 40 -2 28 -4z m-78 -13 c68 -7 68
-7 15 -7 -30 0 -89 3 -130 7 l-75 7 60 0 c33 0 92 -3 130 -7z m168 3 c-13 -2
-33 -2 -45 0 -13 2 -3 4 22 4 25 0 35 -2 23 -4z m130 -10 c-7 -2 -21 -2 -30 0
-10 3 -4 5 12 5 17 0 24 -2 18 -5z m-125 -10 c-15 -2 -42 -2 -60 0 -18 2 -6 4
27 4 33 0 48 -2 33 -4z m255 0 c-13 -2 -33 -2 -45 0 -13 2 -3 4 22 4 25 0 35
-2 23 -4z m2595 -28 c242 -77 427 -290 488 -561 24 -109 16 -273 -19 -372 -55
-157 -163 -285 -303 -359 -103 -54 -180 -73 -295 -73 -119 0 -202 20 -309 72
-69 34 -102 59 -175 133 -103 103 -144 168 -188 292 -42 121 -49 280 -19 401
22 88 90 228 109 225 6 -1 19 8 29 20 l19 22 -22 -19 c-13 -11 -23 -15 -23 -9
0 13 35 45 42 38 2 -3 18 10 34 28 l29 32 -32 -29 c-18 -17 -33 -25 -33 -19 0
17 60 64 72 57 6 -4 8 -2 4 4 -3 6 7 20 23 31 36 26 48 27 30 4 -13 -16 -12
-17 3 -5 10 8 16 19 15 25 -3 16 150 76 220 87 83 12 217 2 301 -25z m3267 15
c0 -11 -29 -19 -118 -34 -111 -18 -121 -18 -168 -2 -28 9 -63 15 -78 15 -22
-2 -23 -2 -4 -6 44 -9 46 -28 4 -57 -37 -26 -39 -30 -33 -68 5 -38 4 -40 -16
-29 -16 8 -28 8 -47 -1 -20 -9 -34 -9 -56 -1 -29 11 -69 7 -69 -7 0 -17 -34
-20 -51 -4 -10 9 -23 13 -29 9 -7 -4 -27 8 -48 28 -47 46 -106 67 -196 69
l-71 1 55 7 c30 4 44 8 30 9 l-25 3 25 8 c28 8 17 16 -35 24 -16 3 3 3 44 1
41 -2 79 -9 85 -15 16 -16 28 -12 22 8 -5 15 1 18 47 19 109 4 496 25 587 33
123 10 145 8 145 -10z m-5977 3 c-16 -2 -40 -2 -55 0 -16 2 -3 4 27 4 30 0 43
-2 28 -4z m125 -10 c-13 -2 -33 -2 -45 0 -13 2 -3 4 22 4 25 0 35 -2 23 -4z
m-1296 -9 c-3 -3 -12 -4 -19 -1 -8 3 -5 6 6 6 11 1 17 -2 13 -5z m1426 -1
c-13 -2 -33 -2 -45 0 -13 2 -3 4 22 4 25 0 35 -2 23 -4z m210 0 c-7 -2 -19 -2
-25 0 -7 3 -2 5 12 5 14 0 19 -2 13 -5z m-2070 -10 c-7 -2 -21 -2 -30 0 -10 3
-4 5 12 5 17 0 24 -2 18 -5z m590 0 c-7 -2 -19 -2 -25 0 -7 3 -2 5 12 5 14 0
19 -2 13 -5z m1395 0 c-10 -2 -26 -2 -35 0 -10 3 -2 5 17 5 19 0 27 -2 18 -5z
m172 -3 c-14 -4 -38 -8 -55 -8 -29 0 -29 0 -5 8 14 4 39 8 55 8 29 0 29 0 5
-8z m-1982 -7 c-16 -2 -40 -2 -55 0 -16 2 -3 4 27 4 30 0 43 -2 28 -4z m2132
3 c0 -2 -9 -6 -20 -9 -11 -3 -18 -1 -14 4 5 9 34 13 34 5z m-1997 -13 c-13 -2
-33 -2 -45 0 -13 2 -3 4 22 4 25 0 35 -2 23 -4z m2075 0 c-10 -2 -26 -2 -35 0
-10 3 -2 5 17 5 19 0 27 -2 18 -5z m-1905 -10 c-7 -2 -21 -2 -30 0 -10 3 -4 5
12 5 17 0 24 -2 18 -5z m2067 -3 c15 -5 -2 -6 -45 -3 -38 3 -72 7 -74 9 -8 8
95 2 119 -6z m-1887 -7 c-18 -2 -48 -2 -65 0 -18 2 -4 4 32 4 36 0 50 -2 33
-4z m186 -12 c8 -5 -5 -7 -35 -4 -27 3 -51 7 -53 9 -9 8 75 3 88 -5z m104 -8
c-7 -2 -19 -2 -25 0 -7 3 -2 5 12 5 14 0 19 -2 13 -5z m524 1 c-3 -3 -12 -4
-19 -1 -8 3 -5 6 6 6 11 1 17 -2 13 -5z m76 -1 c-7 -2 -19 -2 -25 0 -7 3 -2 5
12 5 14 0 19 -2 13 -5z m737 -3 c0 -5 -4 -10 -10 -10 -5 0 -10 5 -10 10 0 6 5
10 10 10 6 0 10 -4 10 -10z m112 -1 c20 1 40 -3 43 -10 5 -8 -11 -10 -56 -7
-40 2 -64 9 -67 17 -3 10 2 11 19 5 13 -4 41 -6 61 -5z m3393 2 c42 -5 -29 -7
-177 -7 -136 1 -239 4 -230 8 22 9 315 8 407 -1z m-4737 -8 c-10 -2 -28 -2
-40 0 -13 2 -5 4 17 4 22 1 32 -1 23 -4z m55 0 c-7 -2 -19 -2 -25 0 -7 3 -2 5
12 5 14 0 19 -2 13 -5z m600 0 c-7 -2 -19 -2 -25 0 -7 3 -2 5 12 5 14 0 19 -2
13 -5z m767 -9 c0 -8 -4 -12 -10 -9 -5 3 -10 10 -10 16 0 5 5 9 10 9 6 0 10
-7 10 -16z m-1227 -1 c-18 -2 -48 -2 -65 0 -18 2 -4 4 32 4 36 0 50 -2 33 -4z
m610 0 c-13 -2 -33 -2 -45 0 -13 2 -3 4 22 4 25 0 35 -2 23 -4z m-465 -10
c-16 -2 -40 -2 -55 0 -16 2 -3 4 27 4 30 0 43 -2 28 -4z m625 0 c-13 -2 -35
-2 -50 0 -16 2 -5 4 22 4 28 0 40 -2 28 -4z m-455 -10 c-15 -2 -42 -2 -60 0
-18 2 -6 4 27 4 33 0 48 -2 33 -4z m565 0 c-7 -2 -19 -2 -25 0 -7 3 -2 5 12 5
14 0 19 -2 13 -5z m4695 -12 c26 -13 46 -34 62 -65 13 -25 21 -49 17 -52 -3
-3 -12 8 -21 24 -19 37 -32 42 -107 42 -33 0 -59 4 -59 10 0 6 10 11 23 12 12
1 -50 5 -138 9 -88 4 -191 14 -230 22 -69 15 -68 15 173 16 221 1 246 -1 280
-18z m-5110 2 c-16 -2 -40 -2 -55 0 -16 2 -3 4 27 4 30 0 43 -2 28 -4z m695 0
c-7 -2 -19 -2 -25 0 -7 3 -2 5 12 5 14 0 19 -2 13 -5z m-556 -10 c-20 -2 -52
-2 -70 0 -17 2 0 4 38 4 39 0 53 -2 32 -4z m711 0 c-10 -2 -26 -2 -35 0 -10 3
-2 5 17 5 19 0 27 -2 18 -5z m-545 -10 c-13 -2 -33 -2 -45 0 -13 2 -3 4 22 4
25 0 35 -2 23 -4z m102 -13 c-3 -5 -14 -10 -23 -9 -14 0 -13 2 3 9 27 11 27
11 20 0z m42 -67 c-2 -16 -4 -3 -4 27 0 30 2 43 4 28 2 -16 2 -40 0 -55z m53
63 c0 -3 -4 -8 -10 -11 -5 -3 -10 -1 -10 4 0 6 5 11 10 11 6 0 10 -2 10 -4z
m410 -14 c-14 -4 -99 -5 -190 -1 l-165 5 190 1 c105 1 179 -2 165 -5z m402
-44 c-8 -8 -9 -4 -5 13 4 13 8 18 11 10 2 -7 -1 -18 -6 -23z m-385 16 c-3 -3
-12 -4 -19 -1 -8 3 -5 6 6 6 11 1 17 -2 13 -5z m-440 -76 c-2 -13 -4 -3 -4 22
0 25 2 35 4 23 2 -13 2 -33 0 -45z m-5504 -25 c-7 -2 -21 -2 -30 0 -10 3 -4 5
12 5 17 0 24 -2 18 -5z m5454 -55 c-2 -13 -4 -3 -4 22 0 25 2 35 4 23 2 -13 2
-33 0 -45z m-5334 45 c-13 -2 -33 -2 -45 0 -13 2 -3 4 22 4 25 0 35 -2 23 -4z
m130 -10 c-13 -2 -33 -2 -45 0 -13 2 -3 4 22 4 25 0 35 -2 23 -4z m270 -20
c-13 -2 -33 -2 -45 0 -13 2 -3 4 22 4 25 0 35 -2 23 -4z m4974 -25 c-3 -7 -5
-2 -5 12 0 14 2 19 5 13 2 -7 2 -19 0 -25z m-4854 15 c-7 -2 -21 -2 -30 0 -10
3 -4 5 12 5 17 0 24 -2 18 -5z m150 -10 c-7 -2 -21 -2 -30 0 -10 3 -4 5 12 5
17 0 24 -2 18 -5z m130 -10 c-13 -2 -33 -2 -45 0 -13 2 -3 4 22 4 25 0 35 -2
23 -4z m9967 -33 c0 -5 -7 -10 -16 -10 -8 0 -12 5 -9 10 3 6 10 10 16 10 5 0
9 -4 9 -10z m-5443 -52 c-3 -7 -5 -2 -5 12 0 14 2 19 5 13 2 -7 2 -19 0 -25z
m4440 2 c31 -19 55 -70 46 -96 -7 -19 -41 -4 -47 19 -8 31 -7 39 4 32 18 -11
10 11 -10 30 -23 21 -95 24 -129 6 -12 -7 -21 -9 -21 -6 0 11 65 34 95 35 17
0 44 -9 62 -20z m-78 -62 c12 -31 2 -39 -42 -31 -41 6 -45 14 -21 37 22 23 53
20 63 -6z m45 -5 c10 -26 0 -25 -18 1 -13 20 -13 24 -2 20 8 -3 17 -13 20 -21z
m-136 0 c-2 -10 -13 -19 -26 -21 -24 -4 -29 7 -10 26 18 18 40 15 36 -5z
m1203 -29 c-11 -15 -21 -23 -21 -17 0 11 33 53 38 48 3 -2 -5 -16 -17 -31z
m-5451 -21 c-11 -17 -11 -17 -6 0 3 10 7 26 7 35 1 15 2 15 6 0 2 -10 -1 -25
-7 -35z m-43 -5 c-3 -7 -5 -2 -5 12 0 14 2 19 5 13 2 -7 2 -19 0 -25z m4238
-28 c15 -61 84 -84 164 -56 51 19 59 16 31 -9 -13 -11 -41 -20 -75 -23 -48 -4
-61 -1 -98 24 -51 34 -67 52 -67 75 0 28 38 19 45 -11z m1183 -56 c-3 -3 -55
-12 -114 -20 -60 -8 -188 -25 -284 -38 -186 -26 -478 -52 -501 -44 -7 2 72 12
176 22 105 10 298 33 430 51 247 33 302 39 293 29z"/>
<path d="M3460 4498 c-14 -7 -47 -19 -74 -28 -27 -9 -45 -19 -40 -22 10 -7
122 36 138 52 12 12 8 12 -24 -2z"/>
<path d="M5031 3804 c0 -11 3 -14 6 -6 3 7 2 16 -1 19 -3 4 -6 -2 -5 -13z"/>
<path d="M6966 4187 c3 -10 9 -15 12 -12 3 3 0 11 -7 18 -10 9 -11 8 -5 -6z"/>
<path d="M8469 4123 c-13 -17 -13 -17 6 -3 11 8 22 16 24 17 2 2 0 3 -6 3 -6
0 -17 -8 -24 -17z"/>
<path d="M7360 3918 c1 -18 29 -53 36 -45 11 11 -6 57 -21 57 -8 0 -15 -6 -15
-12z"/>
<path d="M8835 3452 c-3 -3 -5 -10 -5 -16 0 -15 53 -13 57 1 4 11 -43 24 -52
15z"/>
<path d="M14190 2561 c0 -28 11 -52 21 -45 5 3 6 -1 3 -9 -2 -7 5 -25 16 -38
15 -17 20 -19 16 -6 -8 24 12 21 51 -9 40 -30 43 -14 6 34 -15 20 -20 32 -12
27 8 -5 5 2 -6 14 -21 24 -66 51 -85 51 -5 0 -10 -9 -10 -19z"/>
<path d="M14360 2214 c0 -8 5 -12 10 -9 6 3 10 10 10 16 0 5 -4 9 -10 9 -5 0
-10 -7 -10 -16z"/>
<path d="M13925 2220 c-3 -5 3 -10 14 -10 12 0 21 5 21 10 0 6 -6 10 -14 10
-8 0 -18 -4 -21 -10z"/>
<path d="M13935 2190 c11 -5 27 -9 35 -9 9 0 8 4 -5 9 -11 5 -27 9 -35 9 -9 0
-8 -4 5 -9z"/>
<path d="M2397 2354 c-4 -4 -31 -6 -61 -5 -30 1 -57 -3 -61 -9 -3 -5 -20 -10
-37 -10 -21 0 -31 -6 -35 -19 -3 -11 -10 -18 -17 -15 -7 3 -21 -4 -31 -16 -10
-11 -23 -20 -30 -20 -16 0 -48 -77 -39 -92 6 -9 3 -9 -9 1 -9 7 -14 18 -10 25
4 7 2 7 -7 -1 -21 -19 -3 -76 35 -113 19 -19 35 -28 35 -21 0 21 24 6 30 -19
7 -31 31 -44 65 -36 23 6 26 9 14 17 -9 6 -2 8 23 4 24 -2 43 1 52 10 12 12
17 12 36 -5 25 -22 40 -26 40 -11 0 6 12 6 32 0 41 -11 47 -11 28 1 -11 8 -9
9 13 8 15 -1 27 -8 27 -15 0 -24 17 -13 55 33 34 41 37 49 26 68 -13 20 -12
20 5 4 17 -17 19 -17 38 0 11 9 16 12 13 5 -4 -6 -1 -18 7 -26 13 -13 13 -17
-4 -32 -18 -16 -18 -19 -3 -41 15 -23 14 -26 -3 -39 -16 -13 -17 -14 -1 -9 9
3 17 1 17 -5 0 -6 -6 -11 -14 -11 -7 0 -26 -12 -41 -26 -20 -18 -25 -28 -17
-36 8 -8 21 -3 48 17 25 19 38 24 43 16 5 -7 15 -9 26 -5 14 6 17 4 12 -9 -4
-10 0 -20 11 -26 14 -8 10 -10 -20 -11 l-36 0 13 -28 c8 -15 12 -37 9 -49 -5
-18 -11 -21 -40 -16 -20 3 -40 1 -49 -7 -23 -19 -9 -29 37 -23 35 5 40 4 35
-10 -9 -23 56 -41 84 -24 29 18 33 51 20 141 -7 45 -12 98 -11 118 1 46 -40
135 -82 180 -10 10 -18 24 -18 32 0 20 -49 76 -65 76 -13 0 -65 31 -110 65
-10 8 -25 15 -31 15 -7 0 -19 2 -26 5 -8 3 -17 2 -21 -1z m-31 -46 c-17 -83
-16 -86 12 -93 15 -4 21 -10 15 -12 -8 -3 -13 -22 -13 -47 0 -42 -22 -87 -35
-74 -23 23 -39 215 -18 211 7 -2 17 6 23 17 14 27 21 25 16 -2z m-166 -50 c0
-13 5 -40 11 -61 10 -36 11 -38 24 -20 13 17 14 16 15 -12 0 -16 5 -47 11 -69
14 -51 -2 -70 -31 -36 -11 13 -20 30 -20 39 -1 9 -14 41 -30 71 -26 48 -28 56
-15 66 8 6 15 19 15 28 0 9 5 16 10 16 6 0 10 -10 10 -22z m325 -8 c8 7 15 8
15 2 0 -5 -7 -15 -15 -22 -26 -22 -28 -49 -4 -68 26 -22 19 -39 -35 -91 -48
-46 -59 -34 -45 45 5 32 17 78 26 102 13 34 19 40 29 31 11 -9 18 -8 29 1z
m-385 -20 c0 -5 -2 -10 -4 -10 -3 0 -8 5 -11 10 -3 6 -1 10 4 10 6 0 11 -4 11
-10z m240 -200 c0 -5 -2 -10 -4 -10 -3 0 -8 5 -11 10 -3 6 -1 10 4 10 6 0 11
-4 11 -10z"/>
<path d="M2017 2105 c-19 -40 -17 -51 8 -41 21 8 29 33 19 57 -9 19 -11 17
-27 -16z"/>
<path d="M2045 2011 c-7 -35 -21 -48 -54 -53 l-23 -3 19 -24 c16 -19 30 -24
72 -26 30 -1 56 -7 61 -14 5 -9 13 -10 21 -5 16 10 22 44 8 44 -5 0 -9 9 -9
20 0 11 -4 20 -10 20 -5 0 -10 11 -10 23 0 16 -9 28 -25 35 -37 17 -43 15 -50
-17z"/>
<path d="M2260 2009 c0 -5 5 -7 10 -4 6 3 10 8 10 11 0 2 -4 4 -10 4 -5 0 -10
-5 -10 -11z"/>
<path d="M2330 2000 c0 -5 5 -10 10 -10 6 0 10 5 10 10 0 6 -4 10 -10 10 -5 0
-10 -4 -10 -10z"/>
<path d="M2236 1983 c-6 -14 -5 -15 5 -6 7 7 10 15 7 18 -3 3 -9 -2 -12 -12z"/>
<path d="M2381 1982 c-7 -14 -6 -25 5 -41 15 -21 17 -22 35 -5 11 10 19 27 17
38 -4 28 -43 33 -57 8z"/>
<path d="M2261 1977 c-17 -21 -10 -61 11 -65 9 -2 21 6 27 16 8 16 7 25 -7 42
-16 20 -19 20 -31 7z"/>
<path d="M2331 1903 c1 -35 14 -70 21 -57 8 14 -3 84 -13 84 -5 0 -9 -12 -8
-27z"/>
<path d="M2460 1910 c0 -5 5 -10 10 -10 6 0 10 5 10 10 0 6 -4 10 -10 10 -5 0
-10 -4 -10 -10z"/>
<path d="M2404 1887 c3 -10 6 -23 6 -28 0 -5 5 -9 10 -9 14 0 12 13 -6 36 -14
17 -15 17 -10 1z"/>
<path d="M2220 1870 c0 -5 5 -10 10 -10 6 0 10 5 10 10 0 6 -4 10 -10 10 -5 0
-10 -4 -10 -10z"/>
<path d="M1926 1854 c-9 -25 -7 -72 4 -79 6 -4 10 13 10 44 0 53 -4 62 -14 35z"/>
<path d="M1973 1853 c-28 -11 -11 -24 25 -19 20 3 30 3 22 0 -11 -3 -15 -16
-13 -47 1 -23 0 -34 -3 -24 -6 20 -24 23 -24 5 0 -9 -4 -8 -10 2 -15 23 -13
-9 3 -43 14 -32 30 -33 97 -7 28 11 55 18 60 15 5 -3 14 3 19 14 9 16 7 21 -9
26 -11 3 -24 4 -29 0 -5 -3 -13 15 -16 40 l-7 45 -52 -1 c-28 0 -57 -3 -63 -6z"/>
<path d="M2442 1833 c-10 -20 -5 -44 12 -55 16 -11 20 -10 34 12 9 15 10 26 2
40 -13 25 -36 26 -48 3z"/>
<path d="M2270 1835 c0 -20 32 -75 48 -84 32 -17 33 -13 1 18 -16 16 -29 39
-29 50 0 12 -4 21 -10 21 -5 0 -10 -2 -10 -5z"/>
<path d="M2237 1813 c-11 -10 -8 -61 4 -69 6 -3 18 1 27 9 13 13 13 21 4 42
-12 25 -23 31 -35 18z"/>
<path d="M1965 1800 c-3 -6 1 -7 9 -4 18 7 21 14 7 14 -6 0 -13 -4 -16 -10z"/>
<path d="M2350 1725 c-17 -21 -4 -65 19 -65 22 0 34 25 26 50 -8 25 -31 32
-45 15z"/>
<path d="M2430 1720 c0 -5 5 -10 10 -10 6 0 10 5 10 10 0 6 -4 10 -10 10 -5 0
-10 -4 -10 -10z"/>
<path d="M2072 1674 c-51 -33 -71 -58 -58 -71 3 -4 12 -1 18 5 19 19 33 14 16
-5 -16 -19 -21 -56 -6 -47 5 3 6 9 3 13 -9 15 49 2 61 -13 9 -13 15 -10 45 20
18 19 39 32 46 30 8 -3 13 2 13 14 0 24 -13 26 -33 6 -12 -13 -18 -10 -39 24
-19 27 -23 41 -15 49 18 18 4 12 -51 -25z"/>
<path d="M2285 1700 c3 -5 8 -10 11 -10 2 0 4 5 4 10 0 6 -5 10 -11 10 -5 0
-7 -4 -4 -10z"/>
<path d="M2636 1658 c-3 -13 -19 -37 -36 -55 l-29 -31 35 -32 c46 -40 73 -36
99 12 24 46 14 84 -31 110 -32 18 -32 18 -38 -4z"/>
<path d="M2526 1635 c-3 -10 -1 -15 7 -14 6 1 20 -1 30 -6 26 -11 34 3 11 20
-25 19 -40 19 -48 0z"/>
<path d="M2176 1548 c-29 -45 -38 -77 -31 -105 6 -24 8 -25 16 -10 6 9 15 17
21 17 9 0 9 -3 0 -12 -17 -17 -15 -28 7 -28 11 0 23 -4 26 -10 14 -22 32 -8
42 33 6 23 13 49 17 58 5 12 -5 22 -38 39 -24 14 -42 28 -40 32 12 20 -7 6
-20 -14z"/>
<path d="M2423 1553 c-7 -2 -13 -9 -13 -15 0 -7 5 -7 13 1 8 6 18 7 22 3 5 -4
5 -1 1 6 -4 6 -8 12 -9 11 -1 0 -8 -3 -14 -6z"/>
<path d="M2298 1543 c7 -3 16 -2 19 1 4 3 -2 6 -13 5 -11 0 -14 -3 -6 -6z"/>
<path d="M2497 1507 c-36 -20 -38 -24 -33 -55 12 -76 55 -101 105 -63 31 24
32 67 1 109 -27 37 -24 37 -73 9z"/>
<path d="M2070 1510 c-13 -8 -13 -10 2 -10 9 0 20 5 23 10 8 13 -5 13 -25 0z"/>
<path d="M2307 1473 c-12 -11 -7 -87 7 -112 11 -19 14 -21 19 -7 9 23 26 20
20 -4 -4 -17 0 -20 25 -20 43 0 52 22 39 93 l-10 57 -47 0 c-26 0 -50 -3 -53
-7z"/>
<path d="M2485 1318 c-10 -6 -58 -15 -105 -19 l-85 -7 85 2 c56 2 95 8 115 19
17 9 26 16 20 16 -5 0 -19 -5 -30 -11z"/>
<path d="M2268 1303 c7 -3 16 -2 19 1 4 3 -2 6 -13 5 -11 0 -14 -3 -6 -6z"/>
<path d="M11808 1973 c-34 -5 -58 -38 -58 -78 1 -42 46 -167 67 -182 15 -11
19 -9 30 18 11 26 15 29 28 19 12 -10 15 -10 15 3 0 9 8 21 18 26 15 9 15 10
-5 11 -12 0 -24 -4 -27 -9 -8 -13 -67 -20 -63 -7 4 13 41 24 84 25 22 1 33 -4
36 -16 3 -10 5 21 6 68 1 121 -18 139 -131 122z"/>
<path d="M12035 1943 c-25 -24 -32 -51 -38 -138 -4 -44 -4 -71 0 -61 3 11 12
26 20 34 12 13 13 11 7 -12 -5 -20 -3 -26 11 -26 13 0 16 6 13 25 -4 17 -1 25
8 25 19 0 84 -32 84 -42 0 -11 -18 -10 -25 2 -19 30 -37 -15 -24 -60 4 -15 7
-18 8 -8 1 11 7 15 15 12 13 -5 55 71 87 154 14 35 -13 77 -61 96 -52 20 -84
20 -105 -1z m95 -217 c0 -3 -4 -8 -10 -11 -5 -3 -10 -1 -10 4 0 6 5 11 10 11
6 0 10 -2 10 -4z"/>
<path d="M11644 1896 c-57 -16 -124 -73 -124 -107 0 -31 40 -88 102 -145 38
-35 47 -40 61 -29 9 7 17 16 17 20 0 4 -7 2 -16 -5 -13 -11 -19 -10 -36 8 -18
17 -19 23 -8 36 17 21 25 20 38 -6 7 -15 11 -18 11 -8 1 9 -4 21 -10 27 -13
13 45 58 62 48 13 -9 -48 114 -69 138 -14 15 -14 17 1 17 10 0 17 5 17 10 0 6
-1 9 -2 9 -2 -1 -21 -7 -44 -13z"/>
<path d="M12293 1819 c-20 -7 -68 -62 -113 -129 l-24 -35 28 25 27 24 51 -52
52 -51 -20 -22 c-22 -26 93 57 119 85 27 30 21 62 -23 110 -44 48 -64 57 -97
45z"/>
<path d="M11490 1740 c0 -11 5 -20 10 -20 6 0 10 9 10 20 0 11 -4 20 -10 20
-5 0 -10 -9 -10 -20z"/>
<path d="M11460 1712 c0 -5 -11 -14 -25 -20 -14 -6 -25 -16 -25 -22 0 -6 5 -8
11 -4 8 4 8 0 0 -15 -7 -11 -16 -21 -22 -21 -6 0 -8 -9 -4 -20 4 -14 2 -20 -7
-18 -20 5 -21 -36 -1 -60 10 -12 46 -33 80 -46 l61 -24 22 52 c11 28 26 61 32
73 6 13 9 24 7 26 -2 2 -29 21 -60 43 -30 22 -54 45 -51 52 2 6 -1 12 -7 12
-6 0 -11 -4 -11 -8z"/>
<path d="M12427 1646 c-4 -10 0 -12 14 -9 10 3 16 9 13 14 -8 13 -21 11 -27
-5z"/>
<path d="M12226 1641 c-3 -5 1 -14 9 -21 11 -9 12 -17 3 -36 -8 -17 -8 -28 -1
-35 7 -7 12 -1 17 21 3 19 10 29 17 24 7 -4 10 1 7 12 -2 11 -10 19 -18 20
-31 2 -35 5 -20 14 9 6 10 10 3 10 -6 0 -14 -4 -17 -9z"/>
<path d="M12428 1613 c6 -2 18 -2 25 0 6 3 1 5 -13 5 -14 0 -19 -2 -12 -5z"/>
<path d="M12420 1575 c-14 -8 -41 -20 -60 -26 -19 -7 -44 -18 -55 -26 -18 -13
-17 -14 16 -8 34 6 36 5 47 -33 15 -51 15 -52 -6 -52 -24 0 -68 -45 -53 -55 6
-3 11 0 11 8 0 7 6 14 13 15 6 0 22 4 35 7 17 6 22 3 22 -12 0 -18 4 -19 62
-11 96 13 119 44 92 124 -25 77 -69 101 -124 69z"/>
<path d="M11310 1533 c-78 -311 81 -658 368 -803 35 -18 66 -30 68 -27 3 3
-27 22 -68 43 -104 54 -229 181 -286 291 -60 115 -84 214 -85 343 0 58 5 125
12 149 7 23 10 45 8 47 -2 3 -10 -17 -17 -43z"/>
<path d="M11867 1542 c-34 -37 -11 -76 40 -70 32 3 42 33 23 67 -13 26 -42 27
-63 3z"/>
<path d="M12000 1525 c0 -9 5 -15 11 -13 6 2 11 8 11 13 0 5 -5 11 -11 13 -6
2 -11 -4 -11 -13z"/>
<path d="M11560 1505 c0 -2 10 -10 23 -16 20 -11 21 -11 8 4 -13 16 -31 23
-31 12z"/>
<path d="M11780 1470 c0 -5 7 -10 15 -10 8 0 15 5 15 10 0 6 -7 10 -15 10 -8
0 -15 -4 -15 -10z"/>
<path d="M12056 1465 c-33 -33 -13 -75 36 -75 35 0 51 27 35 61 -15 29 -49 36
-71 14z"/>
<path d="M11580 1439 c0 -5 5 -7 10 -4 6 3 10 8 10 11 0 2 -4 4 -10 4 -5 0
-10 -5 -10 -11z"/>
<path d="M11361 1411 c-16 -16 -21 -33 -21 -73 1 -89 36 -115 133 -97 72 13
67 4 52 117 -6 41 -5 42 22 43 51 1 -6 16 -89 24 -69 7 -78 5 -97 -14z"/>
<path d="M12010 1421 c0 -5 7 -14 15 -21 8 -7 19 -27 24 -44 6 -20 9 -24 10
-11 1 11 -8 35 -19 53 -20 32 -30 40 -30 23z"/>
<path d="M11738 1376 c-14 -32 -5 -54 27 -62 47 -12 73 36 39 70 -23 23 -53
20 -66 -8z"/>
<path d="M11955 1380 c-10 -11 -16 -22 -13 -25 3 -3 13 6 22 20 20 30 16 32
-9 5z"/>
<path d="M11837 1320 c7 -30 34 -73 41 -66 3 3 -1 13 -9 22 -8 9 -20 29 -26
43 l-13 26 7 -25z"/>
<path d="M11950 1331 c0 -14 34 -71 43 -71 4 0 -2 18 -13 40 -20 39 -30 49
-30 31z"/>
<path d="M12126 1332 c-3 -6 -1 -14 5 -17 15 -10 25 3 12 16 -7 7 -13 7 -17 1z"/>
<path d="M12370 1311 c22 -7 25 -12 23 -51 -1 -24 -7 -48 -13 -54 -7 -7 -10
-6 -10 2 0 12 -68 14 -75 1 -3 -4 13 -10 35 -14 39 -7 52 -19 28 -28 -17 -5
76 -46 122 -53 23 -4 40 -2 44 5 4 6 11 11 17 11 5 0 4 -8 -2 -19 -13 -20 -5
-56 11 -46 7 4 6 -3 0 -21 -6 -15 -9 -29 -7 -31 4 -4 21 35 32 74 5 18 3 22
-9 17 -11 -4 -13 0 -9 15 6 23 22 29 24 9 0 -7 5 2 10 21 13 42 5 51 -21 21
-15 -18 -20 -19 -20 -7 0 9 5 19 10 22 17 10 11 71 -8 95 -20 24 -82 39 -162
38 -35 0 -40 -2 -20 -7z"/>
<path d="M11560 1293 c8 -3 24 -10 35 -16 18 -9 19 -9 6 6 -7 10 -23 17 -35
16 -14 0 -16 -2 -6 -6z"/>
<path d="M12021 1268 c-13 -16 -21 -31 -19 -33 2 -3 15 9 27 26 29 40 23 45
-8 7z"/>
<path d="M12052 1258 c-7 -7 -12 -25 -12 -40 0 -21 6 -29 25 -34 52 -13 78 19
51 61 -18 27 -45 32 -64 13z"/>
<path d="M11591 1244 c0 -11 3 -14 6 -6 3 7 2 16 -1 19 -3 4 -6 -2 -5 -13z"/>
<path d="M11780 1240 c0 -5 5 -10 10 -10 6 0 10 5 10 10 0 6 -4 10 -10 10 -5
0 -10 -4 -10 -10z"/>
<path d="M11500 1186 c-88 -37 -109 -65 -90 -120 17 -53 53 -86 93 -86 27 0
47 10 88 47 30 27 57 52 61 58 11 15 0 19 -16 6 -12 -10 -19 -5 -41 29 -38 60
-40 69 -19 85 29 22 6 16 -76 -19z"/>
<path d="M11848 1196 c-9 -22 -8 -29 7 -46 27 -30 63 -26 71 7 9 34 -6 57 -39
61 -21 3 -30 -3 -39 -22z"/>
<path d="M11990 1145 c0 -8 5 -15 10 -15 6 0 10 7 10 15 0 8 -4 15 -10 15 -5
0 -10 -7 -10 -15z"/>
<path d="M12327 1096 c3 -13 -8 -35 -27 -58 l-31 -37 -29 32 c-15 18 -31 29
-35 26 -12 -13 23 -74 71 -126 61 -65 107 -78 146 -41 54 50 63 105 23 142
-13 12 -46 36 -73 53 -46 28 -48 29 -45 9z m-13 -111 c-10 -7 -23 -11 -28 -7
-5 3 0 9 12 13 12 5 22 14 23 21 0 10 2 10 6 0 3 -7 -3 -19 -13 -27z m86 -41
c0 -8 -4 -12 -10 -9 -5 3 -10 10 -10 16 0 5 5 9 10 9 6 0 10 -7 10 -16z"/>
<path d="M11680 1081 c0 -6 4 -13 10 -16 6 -3 7 1 4 9 -7 18 -14 21 -14 7z"/>
<path d="M11631 988 c-37 -45 -51 -72 -51 -94 0 -45 22 -69 61 -66 46 3 67
-11 50 -32 -12 -14 -11 -16 6 -16 34 0 59 36 104 155 19 49 19 50 0 26 l-19
-25 -48 36 c-36 25 -48 41 -47 57 2 11 1 21 -1 21 -2 0 -27 -28 -55 -62z"/>
<path d="M12496 939 c-57 -88 -146 -164 -251 -215 -49 -24 -84 -44 -76 -44 38
0 179 82 236 137 55 53 142 169 133 178 -2 2 -21 -23 -42 -56z"/>
<path d="M12176 977 c3 -10 9 -15 12 -12 3 3 0 11 -7 18 -10 9 -11 8 -5 -6z"/>
<path d="M11838 898 c-10 -47 -18 -99 -18 -114 1 -33 29 -77 37 -56 3 8 26 12
65 12 57 0 59 -1 52 -22 -7 -23 -6 -23 15 -4 15 14 21 31 21 61 0 66 -12 138
-21 124 -5 -9 -22 -10 -66 -3 l-58 9 -5 40 c-5 36 -6 33 -22 -47z"/>
<path d="M12044 930 c5 -68 35 -158 59 -180 21 -21 53 -28 42 -10 -4 6 6 10
22 10 15 0 37 7 47 15 16 12 22 12 28 2 11 -16 28 9 28 42 0 21 -65 141 -76
141 -3 0 -17 -9 -32 -19 -28 -21 -109 -41 -99 -25 3 5 -1 23 -9 39 l-14 30 4
-45z"/>
<path d="M12128 673 c7 -3 16 -2 19 1 4 3 -2 6 -13 5 -11 0 -14 -3 -6 -6z"/>
<path d="M12063 663 c9 -2 23 -2 30 0 6 3 -1 5 -18 5 -16 0 -22 -2 -12 -5z"/>
<path d="M14725 1895 c23 -8 83 -10 79 -3 -3 4 -24 8 -47 7 -23 0 -37 -2 -32
-4z"/>
<path d="M10250 4413 c85 -44 245 -131 355 -195 110 -63 243 -140 295 -170 87
-50 481 -268 540 -298 14 -7 21 -8 15 -2 -5 6 -91 57 -190 115 -99 57 -218
127 -265 154 -347 206 -795 445 -880 468 -14 4 45 -28 130 -72z"/>
<path d="M9257 4282 c-20 -22 -37 -105 -26 -124 11 -18 246 -18 274 0 17 12
12 13 -38 8 -59 -5 -87 0 -87 14 0 4 -14 23 -30 41 -17 17 -29 38 -26 46 4 9
-3 13 -22 14 -24 0 -25 1 -7 9 20 8 20 9 -1 9 -11 1 -28 -7 -37 -17z"/>
<path d="M10185 3760 c-3 -5 -1 -10 4 -10 6 0 11 5 11 10 0 6 -2 10 -4 10 -3
0 -8 -4 -11 -10z"/>
<path d="M12200 3560 c-13 -7 -288 -28 -477 -36 -34 -2 -88 -8 -120 -14 -67
-14 -88 -16 -203 -25 -47 -4 -90 -11 -97 -17 -7 -5 -26 -7 -43 -3 -16 4 -44 3
-62 0 l-32 -7 40 -14 c80 -28 253 -28 469 0 110 14 312 37 450 51 137 15 252
28 254 31 2 2 -19 4 -47 4 -39 0 -57 5 -72 20 -21 21 -36 24 -60 10z"/>
<path d="M10770 3446 c0 -2 7 -6 15 -10 8 -3 15 -1 15 4 0 6 -7 10 -15 10 -8
0 -15 -2 -15 -4z"/>
<path d="M11533 3403 c9 -2 25 -2 35 0 9 3 1 5 -18 5 -19 0 -27 -2 -17 -5z"/>
<path d="M14308 3193 c6 -2 18 -2 25 0 6 3 1 5 -13 5 -14 0 -19 -2 -12 -5z"/>
<path d="M14351 3186 c2 -2 63 -20 136 -40 72 -20 180 -52 239 -71 59 -20 109
-33 111 -31 13 13 -100 53 -273 97 -181 46 -224 55 -213 45z"/>
<path d="M15010 2848 c0 -7 8 -23 18 -35 13 -17 22 -19 40 -12 l23 9 -27 25
c-29 27 -54 33 -54 13z"/>
<path d="M15073 2784 c-9 -4 -8 -15 7 -44 19 -38 20 -38 59 -28 l40 10 -13 32
c-10 25 -18 31 -47 33 -19 1 -40 0 -46 -3z"/>
<path d="M14900 2735 c-63 -12 -170 -33 -237 -45 -68 -13 -123 -27 -123 -31 0
-5 10 -8 21 -6 12 1 24 -4 26 -10 3 -8 -4 -13 -16 -13 -24 0 -28 -18 -6 -27
19 -7 167 11 322 37 62 11 133 20 158 20 25 0 45 5 45 10 0 26 -42 90 -58 89
-9 -1 -69 -11 -132 -24z"/>
<path d="M14603 2703 c9 -2 23 -2 30 0 6 3 -1 5 -18 5 -16 0 -22 -2 -12 -5z"/>
<path d="M14510 2669 c0 -22 50 -142 57 -136 2 2 -8 30 -23 61 -14 31 -24 66
-21 77 3 10 1 19 -4 19 -5 0 -9 -10 -9 -21z"/>
<path d="M15131 2671 c-11 -7 -10 -15 4 -44 16 -34 17 -35 46 -23 34 14 33 12
24 49 -8 29 -12 32 -35 17 -8 -5 -17 -5 -20 0 -3 5 -12 5 -19 1z"/>
<path d="M15020 2620 c-25 -5 -119 -18 -210 -31 -91 -12 -172 -23 -180 -25 -8
-1 -23 -3 -32 -3 -17 -1 -17 -3 -1 -36 l16 -34 61 5 c34 3 102 10 151 15 50 5
142 14 205 21 63 6 116 12 118 13 2 1 -5 21 -14 44 -18 45 -24 47 -114 31z"/>
<path d="M15211 2549 c-10 -18 -15 -19 -22 -8 -7 12 -9 11 -9 -2 0 -24 25 -54
34 -41 4 7 16 12 26 12 17 0 18 4 9 30 -13 36 -20 37 -38 9z"/>
<path d="M14607 2445 c20 -41 39 -73 41 -71 4 5 -66 146 -73 146 -3 0 12 -34
32 -75z"/>
<path d="M14898 2482 c-161 -16 -258 -30 -258 -37 0 -6 7 -21 16 -34 17 -23
19 -24 138 -17 67 3 184 11 262 18 l140 11 -15 44 c-9 24 -18 42 -21 42 -3 -1
-121 -13 -262 -27z"/>
<path d="M15250 2420 c0 -5 7 -7 15 -4 8 4 15 8 15 10 0 2 -7 4 -15 4 -8 0
-15 -4 -15 -10z"/>
<path d="M14980 2368 c-80 -5 -177 -12 -217 -16 l-72 -7 19 -31 20 -31 183 3
c187 4 327 12 327 20 0 3 -7 20 -14 39 -17 40 2 38 -246 23z"/>
<path d="M15300 2319 c0 -5 5 -7 10 -4 6 3 10 8 10 11 0 2 -4 4 -10 4 -5 0
-10 -5 -10 -11z"/>
<path d="M15361 2314 c0 -11 3 -14 6 -6 3 7 2 16 -1 19 -3 4 -6 -2 -5 -13z"/>
<path d="M15345 2267 c-12 -44 -2 -72 25 -75 24 -3 25 0 25 45 -1 42 -4 48
-22 51 -17 2 -24 -3 -28 -21z"/>
<path d="M15118 2255 c-2 -3 -84 -5 -181 -6 -98 0 -177 -3 -177 -7 0 -12 39
-42 68 -53 15 -6 123 -13 240 -16 l213 -6 -7 29 c-14 60 -20 64 -88 64 -34 0
-65 -2 -68 -5z"/>
<path d="M15312 2158 c0 -31 1 -31 9 -9 6 14 6 28 1 33 -5 5 -9 -5 -10 -24z"/>
<path d="M15288 1883 c-13 -3 -18 -15 -19 -46 0 -40 -3 -59 -14 -119 -5 -32
10 -36 64 -17 25 9 31 16 30 37 -1 15 -3 20 -6 11 -4 -16 -31 -29 -60 -29 -18
0 -16 49 2 56 8 4 26 7 40 8 39 2 30 26 -10 26 -31 0 -35 3 -35 25 0 14 5 26
10 26 6 1 15 3 20 4 6 1 19 3 30 4 11 0 20 6 20 11 0 10 -40 12 -72 3z"/>
<path d="M15352 1840 c0 -14 2 -19 5 -12 2 6 2 18 0 25 -3 6 -5 1 -5 -13z"/>
<path d="M15403 1795 c0 -22 2 -30 4 -17 2 12 2 30 0 40 -3 9 -5 -1 -4 -23z"/>
</g>
</svg>
